<svg width="73" height="24" viewBox="0 0 73 24" fill="none" xmlns="http://www.w3.org/2000/svg">
<g clip-path="url(#clip0_407_245)">
<path d="M14.2827 13.4863C14.315 13.3422 14.3406 13.1943 14.3596 13.0426L15.1731 8.44283L15.56 6.24394H12.9998L12.7893 7.43299C11.9099 6.35528 10.7379 5.55446 9.41432 5.12675C8.09071 4.69905 6.67174 4.66266 5.32795 5.02196C3.98416 5.38126 2.7727 6.12097 1.83918 7.15218C0.905648 8.1834 0.289758 9.46226 0.065529 10.8351C-0.1587 12.2079 0.0182732 13.6162 0.575168 14.8909C1.13206 16.1655 2.04519 17.2523 3.20482 18.0205C4.36445 18.7887 5.72125 19.2057 7.11216 19.2213C8.50307 19.237 9.86893 18.8507 11.0456 18.1088H13.455L14.2827 13.4863ZM7.21957 16.7093C6.28857 16.7087 5.37864 16.4321 4.60482 15.9145C3.83099 15.3968 3.22802 14.6614 2.87213 13.8011C2.51624 12.9408 2.42342 11.9943 2.60539 11.0812C2.78737 10.1682 3.23596 9.32961 3.89448 8.67149C4.553 8.01338 5.39186 7.56529 6.30501 7.38386C7.21817 7.20244 8.1646 7.29583 9.02468 7.65224C9.88476 8.00865 10.6199 8.61207 11.137 9.38621C11.6542 10.1603 11.9303 11.0704 11.9303 12.0014C11.9283 12.282 11.9016 12.5619 11.8506 12.8378L11.825 12.9828C11.5988 14.0367 11.0183 14.9813 10.1804 15.6594C9.34241 16.3374 8.29749 16.7079 7.21957 16.7093Z" fill="white"/>
<path d="M39.2955 4.78467C37.4198 4.78674 35.6185 5.51846 34.2726 6.82501C32.9268 8.13155 32.1421 9.91043 32.0844 11.7853L30.3777 21.457L29.9282 24.0171H32.4884L33.7713 16.6552C34.5515 17.5848 35.5535 18.3026 36.6846 18.7422C37.8157 19.1819 39.0395 19.3292 40.2426 19.1705C41.4458 19.0118 42.5895 18.5523 43.568 17.8345C44.5465 17.1166 45.3281 16.1636 45.8406 15.0636C46.3532 13.9636 46.58 12.7521 46.5002 11.5411C46.4204 10.3302 46.0366 9.15892 45.3841 8.13567C44.7316 7.11241 43.8317 6.27022 42.7675 5.68698C41.7032 5.10374 40.5091 4.7983 39.2955 4.7989V4.78467ZM39.2955 16.7093C38.3644 16.7093 37.4542 16.4332 36.68 15.9159C35.9058 15.3986 35.3024 14.6633 34.9461 13.8031C34.5897 12.9428 34.4965 11.9962 34.6782 11.083C34.8598 10.1698 35.3082 9.33091 35.9666 8.67251C36.625 8.01411 37.4639 7.56573 38.3771 7.38408C39.2903 7.20242 40.2369 7.29566 41.0971 7.65198C41.9574 8.00831 42.6927 8.61172 43.21 9.38592C43.7273 10.1601 44.0034 11.0703 44.0034 12.0015C44.0019 13.2496 43.5054 14.4462 42.6228 15.3287C41.7402 16.2113 40.5437 16.7078 39.2955 16.7093Z" fill="white"/>
<path d="M64.971 4.78466C64.806 4.78466 64.6439 4.79035 64.4846 4.80173V4.78466H56.9378L57.3304 2.5488L57.7798 -0.0113525H55.2197L54.7702 2.5488L54.3777 4.78466H52.7847L52.3352 7.34481H53.9282L52.4718 15.5942L52.0223 18.1543H54.5825V18.0918L56.4827 7.31353H59.4951C58.4216 8.56124 57.8071 10.1385 57.7535 11.7836C57.6999 13.4287 58.2105 15.0427 59.2005 16.3576C60.1905 17.6726 61.6005 18.6094 63.1963 19.0126C64.7921 19.4159 66.4778 19.2612 67.9737 18.5745C69.4695 17.8877 70.6855 16.71 71.4198 15.2369C72.1542 13.7638 72.3626 12.0839 72.0107 10.476C71.6588 8.8681 70.7675 7.42891 69.485 6.39729C68.2024 5.36567 66.6056 4.80367 64.9596 4.80457L64.971 4.78466ZM64.971 16.7093C64.0398 16.7098 63.1293 16.4342 62.3547 15.9172C61.5801 15.4003 60.9763 14.6652 60.6195 13.805C60.2628 12.9448 60.1691 11.9982 60.3505 11.0847C60.5318 10.1713 60.9799 9.3322 61.6382 8.67351C62.2965 8.01482 63.1354 7.56617 64.0487 7.38428C64.962 7.2024 65.9087 7.29546 66.7691 7.65171C67.6295 8.00795 68.365 8.61136 68.8824 9.38562C69.3998 10.1599 69.676 11.0702 69.676 12.0015C69.6745 13.2491 69.1784 14.4452 68.2965 15.3277C67.4145 16.2102 66.2187 16.707 64.971 16.7093Z" fill="white"/>
<path d="M48.9502 5.91679H48.9473L47.2434 15.5828L46.7939 18.1316H49.3427L51.2458 7.33625H51.2486L51.6981 4.78748H49.1493L48.9502 5.91679Z" fill="white"/>
<path d="M23.3087 4.78467C21.433 4.78674 19.6317 5.51846 18.2858 6.82501C16.94 8.13155 16.1552 9.91043 16.0976 11.7853L14.3909 21.457L13.9414 24.0171H16.5016L17.793 16.6552C18.575 17.5821 19.5779 18.2969 20.7091 18.7337C21.8403 19.1706 23.0634 19.3153 24.2653 19.1546C25.4673 18.9938 26.6093 18.5328 27.586 17.8141C28.5627 17.0954 29.3426 16.1422 29.8536 15.0425C30.3646 13.9428 30.5902 12.732 30.5097 11.5221C30.4291 10.3121 30.045 9.14198 29.3927 8.1197C28.7405 7.09742 27.8411 6.25598 26.7778 5.67309C25.7144 5.0902 24.5214 4.78465 23.3087 4.78467ZM23.3087 16.7093C22.3777 16.7087 21.4678 16.4321 20.694 15.9145C19.9201 15.3968 19.3172 14.6614 18.9613 13.8011C18.6054 12.9408 18.5126 11.9943 18.6945 11.0813C18.8765 10.1682 19.3251 9.32962 19.9836 8.6715C20.6421 8.01339 21.481 7.5653 22.3942 7.38388C23.3073 7.20245 24.2537 7.29584 25.1138 7.65225C25.9739 8.00866 26.709 8.61208 27.2262 9.38622C27.7434 10.1604 28.0194 11.0705 28.0194 12.0015C28.0179 13.2501 27.521 14.4471 26.6378 15.3297C25.7547 16.2124 24.5573 16.7085 23.3087 16.7093Z" fill="white"/>
</g>
<defs>
<clipPath id="clip0_407_245">
<rect width="72.1877" height="24" fill="white"/>
</clipPath>
</defs>
</svg>
